<svg id="exchange" xmlns="http://www.w3.org/2000/svg" width="36.481" height="37" viewBox="0 0 36.481 37">
  <g id="Sizing_Rectangle" data-name="Sizing Rectangle" transform="translate(0 0.822)" fill="rgba(0,0,0,0)" stroke="rgba(0,0,0,0)" stroke-width="1">
    <rect width="36.178" height="36.178" stroke="none"/>
    <rect x="0.5" y="0.5" width="35.178" height="35.178" fill="none"/>
  </g>
  <path id="rgba_0_0_0_0.98_" data-name="rgba(0,0,0,0.98)" d="M290.356,3l1.247.214,2,.57L296.306,5a17.532,17.532,0,0,1,5.023,4.026,18.44,18.44,0,0,1,3.349,5.629l.57,1.781.356,1.639.071,1,.071.071v.784l.071.071V22.06l-.071.071v.784l-.071.071v.5l-.285,1.568a19.617,19.617,0,0,1-1.211,3.563,18.1,18.1,0,0,1-3.669,5.308l-1.6,1.389.036.107h3.669v2.458l-.107.107h-9.726v-9.8l.036-.036h2.529v6.377l.107.036a14.852,14.852,0,0,0,3.883-3.171l1.5-2a17.973,17.973,0,0,0,1.5-3.064l.285-.855.5-2.28.071-1.5.071-.071V20.421l-.071-.071v-.926l-.071-.071L302.968,18l-.356-1.425-.784-2.066A15.33,15.33,0,0,0,297.873,9.2a15.533,15.533,0,0,0-4.061-2.565A14.436,14.436,0,0,0,290,5.565l.071-.962Z" transform="translate(-269.337 -2.786)" fill="#ffcb05"/>
  <path id="rgba_0_0_0_0.98_2" data-name="rgba(0,0,0,0.98)" d="M3.206,18h9.833v9.833H10.474V21.456l-.107-.036a15.1,15.1,0,0,0-3.955,3.242,15.627,15.627,0,0,0-2.85,4.774L3.064,31l-.356,1.71-.071,1.354-.071.071v1.639l.071.071v.784l.071.071v.5l.214,1.14a16.265,16.265,0,0,0,1,2.993,15.489,15.489,0,0,0,4.1,5.522,15.322,15.322,0,0,0,3.99,2.494l2.28.784,1.532.285-.356,2.565-1.247-.214-2-.57L9.37,50.919a18.187,18.187,0,0,1-8.158-9.37l-.641-2L.143,37.487v-.641L0,36.062v-2L.071,34V33.07L.143,33l.071-.926.356-1.71,1-2.85a18.447,18.447,0,0,1,4.6-6.235l.748-.606-.036-.107H3.206Z" transform="translate(0 -16.717)" fill="#231f20"/>
  <path id="rgba_0_0_0_0_" data-name="rgba(0,0,0,0)" d="M0,0H36.481V17.136H36.41v-.784l-.071-.071v-.5l-.285-1.568a19.614,19.614,0,0,0-1.211-3.563,18.382,18.382,0,0,0-4.6-6.163,17.631,17.631,0,0,0-4.418-2.85l-2.708-1-2.1-.428-.285,1.6-.071.962A14.8,14.8,0,0,1,25.9,4.56a15.58,15.58,0,0,1,4.168,3.384,15.989,15.989,0,0,1,2.921,4.988l.285.855.5,2.28.071,1.5.071.071v1.211l-.071.071-.071,1.5-.5,2.28-.926,2.351a15.591,15.591,0,0,1-3.669,4.881,10.415,10.415,0,0,1-2.672,1.853V25.366H23.442V35.2h9.726l.107-.107V32.634H29.605l-.036-.107,1.71-1.5a18.392,18.392,0,0,0,3.848-5.843l.926-2.921.285-1.568.107-1.389.036,17.172H0V19.416H.071L.143,20.77l.143.428.143,1.069L.784,23.62l.784,2.066A18.32,18.32,0,0,0,5.38,31.208,17.9,17.9,0,0,0,9.37,34.2l2.85,1.283,2,.57,1.247.214.356-2.565-2.031-.428L11.08,32.206a15.707,15.707,0,0,1-4.738-3.741,15.4,15.4,0,0,1-2.779-4.7l-.5-1.568-.356-1.71-.071-1.354-.071-.071V17.421l.071-.071v-.784l.071-.071V16l.214-1.14a16.265,16.265,0,0,1,1-2.993,15.4,15.4,0,0,1,3.954-5.38,10.612,10.612,0,0,1,2.6-1.781v6.413h2.565V1.283H3.206V3.848H6.876l.036.107L4.56,6.163a19.384,19.384,0,0,0-2.993,4.631l-1,2.85-.356,1.71L.036,17.314Z" fill="rgba(0,0,0,0)"/>
</svg>
