<svg xmlns="http://www.w3.org/2000/svg" width="58" height="58" viewBox="0 0 58 58">
  <g id="fast" transform="translate(0 0.224)">
    <g id="Sizing_Rectangle" data-name="Sizing Rectangle" transform="translate(0 -0.224)" fill="rgba(0,0,0,0)" stroke="rgba(0,0,0,0)" stroke-width="1">
      <rect width="58" height="58" stroke="none"/>
      <rect x="0.5" y="0.5" width="57" height="57" fill="none"/>
    </g>
    <path id="rgba_0_0_0_0_" data-name="rgba(0,0,0,0)" d="M0,0H57.383V33.343h-.112V32.67l-.224-.9-.9-2.242a11.181,11.181,0,0,0-2.634-3.194,10.766,10.766,0,0,0-5.155-2.354q-.616.168-.785-.112H39.339l1.345-5.66v-.56l-.5-.728-.448-.224H10.479l-.728.5a1.147,1.147,0,0,0-.224,1.009l.5.728.448.224h27.4L32.5,43.037h-6.22l-.168-.168-.448-1.457-1.4-1.737a5.444,5.444,0,0,0-2.242-1.233l-1.009-.224H19.669a6.082,6.082,0,0,0-4.091,2.3,4.744,4.744,0,0,0-1.121,2.522H10.367l-.728.616-.112.785a1.309,1.309,0,0,0,.728.953l.448.112h3.755a5.446,5.446,0,0,0,2.3,3.586l1.121.672,1.009.336.56.112h1.793a6.031,6.031,0,0,0,3.867-2.3l.785-1.345.392-1.065H40.74l.056.28a6.106,6.106,0,0,0,1.961,3.082l2.017,1.121,1.009.224h1.681a5.936,5.936,0,0,0,3.755-2.073A4.646,4.646,0,0,0,52.451,45.5h1.961l.672-.224.28-.28.448-1.457v-.56l.336-1.233v-.56l.224-.672v-.56l.336-1.233v-.56l.616-3.082.056,22.3H0V37.489H.112l.392.616.672.224H15.522a1.4,1.4,0,0,0,1.065-.616l.224-.672-.224-.672-.28-.28-.448-.224H.841l-.728.616-.056.168ZM5.716,21.519l-.448.224-.336.336-.224.672.224.672a1.614,1.614,0,0,0,1.121.56h9.526l.672-.224a1.509,1.509,0,0,0,.56-1.009l-.224-.672-.672-.56ZM3.25,28.691l-.224.112-.672.9.112.785.672.56.448.112H15.579l.672-.224a1.509,1.509,0,0,0,.56-1.009l-.224-.672-.672-.56Z" transform="translate(0 0.393)" fill="rgba(0,0,0,0)"/>
    <path id="rgba_0_0_0_0_2" data-name="rgba(0,0,0,0)" d="M315.811,235h8.8q.146.247.672.112a8.335,8.335,0,0,1,4.651,2.634,7.631,7.631,0,0,1,1.681,2.8l.336,1.233.112,1.345-1.569,7.845v.56l-.168.168h-.841v-.392a6.417,6.417,0,0,0-2.3-3.306l-1.793-.9-1.121-.224h-1.233a6.005,6.005,0,0,0-4.2,2.41,4.1,4.1,0,0,0-1.009,2.41L312,251.643l.336-1.009.224-1.457.336-1.009.224-1.457.336-1.009v-.448Z" transform="translate(-277.032 -208.269)" fill="rgba(0,0,0,0)"/>
    <path id="rgba_0_0_0_0_3" data-name="rgba(0,0,0,0)" d="M152.508,362.914q2.6-.134,3.53,1.4l.672,1.569v1.233a3.565,3.565,0,0,1-1.513,2.3l-1.233.56H152.4a3.477,3.477,0,0,1-1.961-1.177,3.566,3.566,0,0,1-.785-3.138,3.829,3.829,0,0,1,1.513-2.185Z" transform="translate(-132.839 -321.838)" fill="rgba(0,0,0,0)"/>
    <path id="rgba_0_0_0_0_4" data-name="rgba(0,0,0,0)" d="M386.97,363H388.2l.785.224,1.4,1.065a3.631,3.631,0,0,1,.785,2.69,3.515,3.515,0,0,1-1.4,2.41l-1.345.672h-1.681a4.04,4.04,0,0,1-2.073-1.4l-.56-1.121L384,366.194a3.79,3.79,0,0,1,1.289-2.41A3.268,3.268,0,0,1,386.97,363Z" transform="translate(-340.963 -321.923)" fill="rgba(0,0,0,0)"/>
    <path id="rgba_0_0_0_1_" data-name="rgba(0,0,0,1)" d="M86.312,150h29.476l.616.5a1.457,1.457,0,0,1,.112,1.121l-1.009,4.035-.224,1.513h8.686q.146.258.672.112a10.977,10.977,0,0,1,5.66,3.082,11.6,11.6,0,0,1,2.354,3.7l.56,2.129.112,1.793-.336,1.233v.56l-.9,4.259-.56,3.586-.616.841-.224.112h-2.3a5.558,5.558,0,0,1-2.185,3.586,6.034,6.034,0,0,1-4.147,1.233l-1.121-.224-1.345-.56-1.737-1.513a4.745,4.745,0,0,1-1.121-2.522H102.114l-.056.392a6.351,6.351,0,0,1-1.625,2.746,6.15,6.15,0,0,1-4.6,1.681l-1.233-.224-1.121-.448a6.073,6.073,0,0,1-1.849-1.513l-.785-1.233-.5-1.4H86.424l-.729-.5a1.457,1.457,0,0,1-.112-1.121l.224-.392.729-.336h3.811l.168-.168a5.43,5.43,0,0,1,1.625-2.97,6.322,6.322,0,0,1,2.578-1.457l.56-.112H97.3a5.778,5.778,0,0,1,3.642,2.185,4.491,4.491,0,0,1,1.121,2.522h6.332l.168-.168.224-1.457.336-1.009.224-1.457.336-1.009.224-1.457,2.242-9.414v-.448l1.793-7.4-.168-.168H86.312l-.616-.5-.112-1.009.5-.616Zm28.411,9.414-3.811,16.7.112.112h5.716a5.545,5.545,0,0,1,1.233-2.578,6.206,6.206,0,0,1,3.586-2.129h2.129l.448.112a7.829,7.829,0,0,1,2.354,1.233,6.105,6.105,0,0,1,1.905,3.25l.112.112h.9l.9-4.6v-.56l.336-1.233v-.56l.336-1.233v-1.233l-.224-1.121a6.7,6.7,0,0,0-1.457-2.914,8.8,8.8,0,0,0-4.707-3.138l-1.457-.112-.112-.112Zm-18.6,14.346-1.009.224-1.009.56a3.256,3.256,0,0,0-1.457,2.466,3.432,3.432,0,0,0,.672,2.578,3.752,3.752,0,0,0,2.466,1.457l1.569-.112,1.121-.56a4.8,4.8,0,0,0,1.345-2.017q.224-2.354-.785-3.25A3.244,3.244,0,0,0,96.118,173.76Zm26.338,0-1.345.336-.56.336a3.532,3.532,0,0,0-1.569,2.354v1.457l.785,1.569a4.184,4.184,0,0,0,2.354,1.233,3.625,3.625,0,0,0,2.914-.9,3.716,3.716,0,0,0,1.121-1.905v-1.457l-.56-1.345A3.528,3.528,0,0,0,122.456,173.76Z" transform="translate(-75.945 -132.796)" fill="#231f20"/>
    <path id="rgba_0_0_0_1_2" data-name="rgba(0,0,0,1)" d="M43.953,192h9.975l.841.616.112.9-.616.728-.224.112h-10.2l-.728-.616-.112-.9.616-.728Z" transform="translate(-38.181 -170.088)" fill="#ffcb05"/>
    <path id="rgba_0_0_0_1_3" data-name="rgba(0,0,0,1)" d="M22.536,256H34.864l.841.616.112.9-.616.728-.224.112H22.424l-.728-.5a1.457,1.457,0,0,1-.112-1.121l.224-.392Z" transform="translate(-19.118 -226.916)" fill="#ffcb05"/>
    <path id="rgba_0_0_0_1_4" data-name="rgba(0,0,0,1)" d="M1.065,320H15.747l.841.616.112.9-.616.728-.224.112H.841l-.728-.616L0,321.065l.5-.841Z" transform="translate(0 -283.743)" fill="#ffcb05"/>
    <path id="rgba_0_0_0_0.55_" data-name="rgba(0,0,0,0.55)" d="M93.5,149l29.308.056-29.308.056Z" transform="translate(-83.021 -131.908)" fill="rgba(0,0,0,0.55)"/>
    <path id="rgba_0_0_0_0.55_2" data-name="rgba(0,0,0,0.55)" d="M87.724,151l-.224.336Z" transform="translate(-77.693 -133.683)" fill="rgba(0,0,0,0.55)"/>
    <path id="rgba_0_0_0_0.55_3" data-name="rgba(0,0,0,0.55)" d="M358.5,151l.224.336Z" transform="translate(-318.321 -133.683)" fill="rgba(0,0,0,0.55)"/>
    <path id="rgba_0_0_0_0.55_4" data-name="rgba(0,0,0,0.55)" d="M85.056,157l.056.616H85Z" transform="translate(-75.474 -139.011)" fill="rgba(0,0,0,0.55)"/>
    <path id="rgba_0_0_0_0.55_5" data-name="rgba(0,0,0,0.55)" d="M362.056,157l.056.616H362Z" transform="translate(-321.429 -139.011)" fill="rgba(0,0,0,0.55)"/>
    <path id="rgba_0_0_0_0.55_6" data-name="rgba(0,0,0,0.55)" d="M87.5,166l.224.336Z" transform="translate(-77.693 -147.002)" fill="rgba(0,0,0,0.55)"/>
    <path id="rgba_0_0_0_0.55_7" data-name="rgba(0,0,0,0.55)" d="M93.5,170h27.346l.168.168-.168-.056H93.5Z" transform="translate(-83.021 -150.554)" fill="rgba(0,0,0,0.55)"/>
    <path id="rgba_0_0_0_0.55_8" data-name="rgba(0,0,0,0.55)" d="M358.056,178l.056.28H358Z" transform="translate(-317.877 -157.657)" fill="rgba(0,0,0,0.55)"/>
    <path id="rgba_0_0_0_0.55_9" data-name="rgba(0,0,0,0.55)" d="M335.056,183l.056.28H335Z" transform="translate(-297.455 -162.097)" fill="rgba(0,0,0,0.55)"/>
    <path id="rgba_0_0_0_0.55_10" data-name="rgba(0,0,0,0.55)" d="M44.724,194l-.224.336Z" transform="translate(-39.513 -171.864)" fill="rgba(0,0,0,0.55)"/>
    <path id="rgba_0_0_0_0.55_11" data-name="rgba(0,0,0,0.55)" d="M145.5,194l.224.336Z" transform="translate(-129.193 -171.864)" fill="rgba(0,0,0,0.55)"/>
    <path id="rgba_0_0_0_0.55_12" data-name="rgba(0,0,0,0.55)" d="M353.056,200l.056.28H353Z" transform="translate(-313.437 -177.192)" fill="rgba(0,0,0,0.55)"/>
    <path id="rgba_0_0_0_0.55_13" data-name="rgba(0,0,0,0.55)" d="M330.056,205l.056.28H330Z" transform="translate(-293.015 -181.631)" fill="rgba(0,0,0,0.55)"/>
    <path id="rgba_0_0_0_0.55_14" data-name="rgba(0,0,0,0.55)" d="M44.5,208l.336.448Z" transform="translate(-39.513 -184.295)" fill="rgba(0,0,0,0.55)"/>
    <path id="rgba_0_0_0_0.55_15" data-name="rgba(0,0,0,0.55)" d="M144.836,208l-.336.448Z" transform="translate(-128.305 -184.295)" fill="rgba(0,0,0,0.55)"/>
    <path id="rgba_0_0_0_0.55_16" data-name="rgba(0,0,0,0.55)" d="M53.5,213l9.582.056-9.582.056Z" transform="translate(-47.504 -188.735)" fill="rgba(0,0,0,0.55)"/>
    <path id="rgba_0_0_0_0.55_17" data-name="rgba(0,0,0,0.55)" d="M351.5,213l8.238.056-8.238.056Z" transform="translate(-312.105 -188.735)" fill="rgba(0,0,0,0.55)"/>
    <path id="rgba_0_0_0_0.55_18" data-name="rgba(0,0,0,0.55)" d="M429.5,214l.28.056-.28.056Z" transform="translate(-381.363 -189.623)" fill="rgba(0,0,0,0.55)"/>
    <path id="rgba_0_0_0_0.55_19" data-name="rgba(0,0,0,0.55)" d="M469.5,229l.112.224Z" transform="translate(-416.88 -202.942)" fill="rgba(0,0,0,0.55)"/>
    <path id="rgba_0_0_0_0.55_20" data-name="rgba(0,0,0,0.55)" d="M473.5,232l.112.224Z" transform="translate(-420.432 -205.605)" fill="rgba(0,0,0,0.55)"/>
    <path id="rgba_0_0_0_0.55_21" data-name="rgba(0,0,0,0.55)" d="M346.5,234l8.238.056-8.238.056Z" transform="translate(-307.666 -207.381)" fill="rgba(0,0,0,0.55)"/>
    <path id="rgba_0_0_0_0.55_22" data-name="rgba(0,0,0,0.55)" d="M425.5,235l.392.056-.392.056Z" transform="translate(-377.812 -208.269)" fill="rgba(0,0,0,0.55)"/>
    <path id="rgba_0_0_0_0.55_23" data-name="rgba(0,0,0,0.55)" d="M477.5,235l.56.672Z" transform="translate(-423.984 -208.269)" fill="rgba(0,0,0,0.55)"/>
    <path id="rgba_0_0_0_0.55_24" data-name="rgba(0,0,0,0.55)" d="M431.5,236l.28.056-.28.056Z" transform="translate(-383.139 -209.157)" fill="rgba(0,0,0,0.55)"/>
    <path id="rgba_0_0_0_0.55_25" data-name="rgba(0,0,0,0.55)" d="M485.5,243l.448.56Z" transform="translate(-431.087 -215.372)" fill="rgba(0,0,0,0.55)"/>
    <path id="rgba_0_0_0_0.55_26" data-name="rgba(0,0,0,0.55)" d="M453.5,244l.112.224Z" transform="translate(-402.674 -216.26)" fill="rgba(0,0,0,0.55)"/>
    <path id="rgba_0_0_0_0.55_27" data-name="rgba(0,0,0,0.55)" d="M459.5,248l.112.224Z" transform="translate(-408.001 -219.812)" fill="rgba(0,0,0,0.55)"/>
    <path id="rgba_0_0_0_0.55_28" data-name="rgba(0,0,0,0.55)" d="M463.5,251l.224.336Z" transform="translate(-411.553 -222.476)" fill="rgba(0,0,0,0.55)"/>
    <path id="rgba_0_0_0_0.55_29" data-name="rgba(0,0,0,0.55)" d="M492.5,251l.112.224Z" transform="translate(-437.303 -222.476)" fill="rgba(0,0,0,0.55)"/>
    <path id="rgba_0_0_0_0.55_30" data-name="rgba(0,0,0,0.55)" d="M494.5,254l.112.224Z" transform="translate(-439.079 -225.14)" fill="rgba(0,0,0,0.55)"/>
    <path id="rgba_0_0_0_0.55_31" data-name="rgba(0,0,0,0.55)" d="M25.612,257l-.112.224Z" transform="translate(-22.642 -227.803)" fill="rgba(0,0,0,0.55)"/>
    <path id="rgba_0_0_0_0.55_32" data-name="rgba(0,0,0,0.55)" d="M496.5,257l.112.224Z" transform="translate(-440.854 -227.803)" fill="rgba(0,0,0,0.55)"/>
    <path id="rgba_0_0_0_0.55_33" data-name="rgba(0,0,0,0.55)" d="M145.5,258l.224.336Z" transform="translate(-129.193 -228.691)" fill="rgba(0,0,0,0.55)"/>
    <path id="rgba_0_0_0_0.55_34" data-name="rgba(0,0,0,0.55)" d="M22.612,260l-.112.224Z" transform="translate(-19.978 -230.467)" fill="rgba(0,0,0,0.55)"/>
    <path id="rgba_0_0_0_0.55_35" data-name="rgba(0,0,0,0.55)" d="M472.5,260l.336.448Z" transform="translate(-419.544 -230.467)" fill="rgba(0,0,0,0.55)"/>
    <path id="rgba_0_0_0_0.55_36" data-name="rgba(0,0,0,0.55)" d="M499.5,262l.112.224Z" transform="translate(-443.518 -232.243)" fill="rgba(0,0,0,0.55)"/>
    <path id="rgba_0_0_0_0.55_37" data-name="rgba(0,0,0,0.55)" d="M21.056,264l.056.5H21Z" transform="translate(-18.646 -234.019)" fill="rgba(0,0,0,0.55)"/>
    <path id="rgba_0_0_0_0.55_38" data-name="rgba(0,0,0,0.55)" d="M144.836,272l-.336.448Z" transform="translate(-128.305 -241.122)" fill="rgba(0,0,0,0.55)"/>
    <path id="rgba_0_0_0_0.55_39" data-name="rgba(0,0,0,0.55)" d="M26.5,275l.28.168-.168.056Z" transform="translate(-23.53 -243.786)" fill="rgba(0,0,0,0.55)"/>
    <path id="rgba_0_0_0_0.55_40" data-name="rgba(0,0,0,0.55)" d="M31.5,277l12.048.056-12.048.056Z" transform="translate(-27.97 -245.562)" fill="rgba(0,0,0,0.55)"/>
    <path id="rgba_0_0_0_0.55_41" data-name="rgba(0,0,0,0.55)" d="M510.056,291l.056.28H510Z" transform="translate(-452.841 -257.993)" fill="rgba(0,0,0,0.55)"/>
    <path id="rgba_0_0_0_0.55_42" data-name="rgba(0,0,0,0.55)" d="M511.056,298l.056.5H511Z" transform="translate(-453.729 -264.208)" fill="rgba(0,0,0,0.55)"/>
    <path id="rgba_0_0_0_0.55_43" data-name="rgba(0,0,0,0.55)" d="M490.056,299l.056.5H490Z" transform="translate(-435.083 -265.096)" fill="rgba(0,0,0,0.55)"/>
    <path id="rgba_0_0_0_0.55_44" data-name="rgba(0,0,0,0.55)" d="M490.056,308l.056.28H490Z" transform="translate(-435.083 -273.088)" fill="rgba(0,0,0,0.55)"/>
    <path id="rgba_0_0_0_0.55_45" data-name="rgba(0,0,0,0.55)" d="M489.056,313l.056.28H489Z" transform="translate(-434.195 -277.527)" fill="rgba(0,0,0,0.55)"/>
    <path id="rgba_0_0_0_0.55_46" data-name="rgba(0,0,0,0.55)" d="M510.056,316l.056.28H510Z" transform="translate(-452.841 -280.191)" fill="rgba(0,0,0,0.55)"/>
    <path id="rgba_0_0_0_0.55_47" data-name="rgba(0,0,0,0.55)" d="M509.056,321l.056.28H509Z" transform="translate(-451.953 -284.631)" fill="rgba(0,0,0,0.55)"/>
    <path id="rgba_0_0_0_0.55_48" data-name="rgba(0,0,0,0.55)" d="M145.5,322l.224.336Z" transform="translate(-129.193 -285.518)" fill="rgba(0,0,0,0.55)"/>
    <path id="rgba_0_0_0_0.55_49" data-name="rgba(0,0,0,0.55)" d="M487.056,324l.056.28H487Z" transform="translate(-432.419 -287.294)" fill="rgba(0,0,0,0.55)"/>
    <path id="rgba_0_0_0_0.55_50" data-name="rgba(0,0,0,0.55)" d="M486.056,329l.056.28H486Z" transform="translate(-431.531 -291.734)" fill="rgba(0,0,0,0.55)"/>
    <path id="rgba_0_0_0_0.55_51" data-name="rgba(0,0,0,0.55)" d="M507.056,332l.056.28H507Z" transform="translate(-450.178 -294.398)" fill="rgba(0,0,0,0.55)"/>
    <path id="rgba_0_0_0_0.55_52" data-name="rgba(0,0,0,0.55)" d="M144.836,336l-.336.448Z" transform="translate(-128.305 -297.949)" fill="rgba(0,0,0,0.55)"/>
    <path id="rgba_0_0_0_0.55_53" data-name="rgba(0,0,0,0.55)" d="M2.5,337l.224.336Z" transform="translate(-2.22 -298.837)" fill="rgba(0,0,0,0.55)"/>
    <path id="rgba_0_0_0_0.55_54" data-name="rgba(0,0,0,0.55)" d="M484.056,340l.056.28H484Z" transform="translate(-429.755 -301.501)" fill="rgba(0,0,0,0.55)"/>
    <path id="rgba_0_0_0_0.55_55" data-name="rgba(0,0,0,0.55)" d="M10.5,341l14.4.056-14.4.056Z" transform="translate(-9.323 -302.389)" fill="rgba(0,0,0,0.55)"/>
    <path id="rgba_0_0_0_0.55_56" data-name="rgba(0,0,0,0.55)" d="M175.5,341l1.4.056-1.4.056Z" transform="translate(-155.831 -302.389)" fill="rgba(0,0,0,0.55)"/>
    <path id="rgba_0_0_0_0.55_57" data-name="rgba(0,0,0,0.55)" d="M410.5,341l1.289.056-1.289.056Z" transform="translate(-364.493 -302.389)" fill="rgba(0,0,0,0.55)"/>
    <path id="rgba_0_0_0_0.55_58" data-name="rgba(0,0,0,0.55)" d="M169.5,342l.28.056-.28.056Z" transform="translate(-150.503 -303.277)" fill="rgba(0,0,0,0.55)"/>
    <path id="rgba_0_0_0_0.55_59" data-name="rgba(0,0,0,0.55)" d="M505.056,343l.056.28H505Z" transform="translate(-448.402 -304.165)" fill="rgba(0,0,0,0.55)"/>
    <path id="rgba_0_0_0_0.55_60" data-name="rgba(0,0,0,0.55)" d="M483.056,345l.056.28H483Z" transform="translate(-428.867 -305.941)" fill="rgba(0,0,0,0.55)"/>
    <path id="rgba_0_0_0_0.55_61" data-name="rgba(0,0,0,0.55)" d="M206.5,347l.112.224Z" transform="translate(-183.356 -307.717)" fill="rgba(0,0,0,0.55)"/>
    <path id="rgba_0_0_0_0.55_62" data-name="rgba(0,0,0,0.55)" d="M153.612,348l-.112.224Z" transform="translate(-136.296 -308.604)" fill="rgba(0,0,0,0.55)"/>
    <path id="rgba_0_0_0_0.55_63" data-name="rgba(0,0,0,0.55)" d="M504.056,348l.056.28H504Z" transform="translate(-447.514 -308.604)" fill="rgba(0,0,0,0.55)"/>
    <path id="rgba_0_0_0_0.55_64" data-name="rgba(0,0,0,0.55)" d="M386.612,349l-.112.224Z" transform="translate(-343.183 -309.492)" fill="rgba(0,0,0,0.55)"/>
    <path id="rgba_0_0_0_0.55_65" data-name="rgba(0,0,0,0.55)" d="M444.5,349l.112.224Z" transform="translate(-394.682 -309.492)" fill="rgba(0,0,0,0.55)"/>
    <path id="rgba_0_0_0_0.55_66" data-name="rgba(0,0,0,0.55)" d="M150.612,350l-.112.224Z" transform="translate(-133.633 -310.38)" fill="rgba(0,0,0,0.55)"/>
    <path id="rgba_0_0_0_0.55_67" data-name="rgba(0,0,0,0.55)" d="M211.5,350l.112.224Z" transform="translate(-187.796 -310.38)" fill="rgba(0,0,0,0.55)"/>
    <path id="rgba_0_0_0_0.55_68" data-name="rgba(0,0,0,0.55)" d="M447.5,351l.224.336Z" transform="translate(-397.346 -311.268)" fill="rgba(0,0,0,0.55)"/>
    <path id="rgba_0_0_0_0.55_69" data-name="rgba(0,0,0,0.55)" d="M145.724,353l-.224.336Z" transform="translate(-129.193 -313.044)" fill="rgba(0,0,0,0.55)"/>
    <path id="rgba_0_0_0_0.55_70" data-name="rgba(0,0,0,0.55)" d="M216.5,354l.56.672Z" transform="translate(-192.236 -313.932)" fill="rgba(0,0,0,0.55)"/>
    <path id="rgba_0_0_0_0.55_71" data-name="rgba(0,0,0,0.55)" d="M481.056,356l.056.28H481Z" transform="translate(-427.091 -315.708)" fill="rgba(0,0,0,0.55)"/>
    <path id="rgba_0_0_0_0.55_72" data-name="rgba(0,0,0,0.55)" d="M139.836,358l-.336.448Z" transform="translate(-123.865 -317.484)" fill="rgba(0,0,0,0.55)"/>
    <path id="rgba_0_0_0_0.55_73" data-name="rgba(0,0,0,0.55)" d="M502.056,359l.056.28H502Z" transform="translate(-445.738 -318.372)" fill="rgba(0,0,0,0.55)"/>
    <path id="rgba_0_0_0_0.55_74" data-name="rgba(0,0,0,0.55)" d="M373.612,361l-.112.224Z" transform="translate(-331.64 -320.148)" fill="rgba(0,0,0,0.55)"/>
    <path id="rgba_0_0_0_0.55_75" data-name="rgba(0,0,0,0.55)" d="M457.5,361l.112.224Z" transform="translate(-406.225 -320.148)" fill="rgba(0,0,0,0.55)"/>
    <path id="rgba_0_0_0_0.55_76" data-name="rgba(0,0,0,0.55)" d="M480.056,361l.056.28H480Z" transform="translate(-426.204 -320.148)" fill="rgba(0,0,0,0.55)"/>
    <path id="rgba_0_0_0_0.55_77" data-name="rgba(0,0,0,0.55)" d="M179.5,362l.392.056-.392.056Z" transform="translate(-159.382 -321.036)" fill="rgba(0,0,0,0.55)"/>
    <path id="rgba_0_0_0_0.55_78" data-name="rgba(0,0,0,0.55)" d="M223.5,362l.224.336Z" transform="translate(-198.451 -321.036)" fill="rgba(0,0,0,0.55)"/>
    <path id="rgba_0_0_0_0.55_79" data-name="rgba(0,0,0,0.55)" d="M414.5,362l.392.056-.392.056Z" transform="translate(-368.045 -321.036)" fill="rgba(0,0,0,0.55)"/>
    <path id="rgba_0_0_0_0.55_80" data-name="rgba(0,0,0,0.55)" d="M187.5,363l.28.056-.28.056Z" transform="translate(-166.486 -321.923)" fill="rgba(0,0,0,0.55)"/>
    <path id="rgba_0_0_0_0.55_81" data-name="rgba(0,0,0,0.55)" d="M501.056,364l.056.28H501Z" transform="translate(-444.85 -322.811)" fill="rgba(0,0,0,0.55)"/>
    <path id="rgba_0_0_0_0.55_82" data-name="rgba(0,0,0,0.55)" d="M399.612,366l-.112.224Z" transform="translate(-354.726 -324.587)" fill="rgba(0,0,0,0.55)"/>
    <path id="rgba_0_0_0_0.55_83" data-name="rgba(0,0,0,0.55)" d="M431.5,366l.112.224Z" transform="translate(-383.139 -324.587)" fill="rgba(0,0,0,0.55)"/>
    <path id="rgba_0_0_0_0.55_84" data-name="rgba(0,0,0,0.55)" d="M198.5,367l.112.224Z" transform="translate(-176.253 -325.475)" fill="rgba(0,0,0,0.55)"/>
    <path id="rgba_0_0_0_0.55_85" data-name="rgba(0,0,0,0.55)" d="M227.5,368l.112.224Z" transform="translate(-202.003 -326.363)" fill="rgba(0,0,0,0.55)"/>
    <path id="rgba_0_0_0_0.55_86" data-name="rgba(0,0,0,0.55)" d="M396.612,368l-.112.224Z" transform="translate(-352.062 -326.363)" fill="rgba(0,0,0,0.55)"/>
    <path id="rgba_0_0_0_0.55_87" data-name="rgba(0,0,0,0.55)" d="M434.5,368l.112.224Z" transform="translate(-385.803 -326.363)" fill="rgba(0,0,0,0.55)"/>
    <path id="rgba_0_0_0_0.55_88" data-name="rgba(0,0,0,0.55)" d="M156.172,369l-.672.785Z" transform="translate(-138.072 -327.251)" fill="rgba(0,0,0,0.55)"/>
    <path id="rgba_0_0_0_0.55_89" data-name="rgba(0,0,0,0.55)" d="M202.5,370l.336.448Z" transform="translate(-179.805 -328.139)" fill="rgba(0,0,0,0.55)"/>
    <path id="rgba_0_0_0_0.55_90" data-name="rgba(0,0,0,0.55)" d="M500.056,370l.056.28H500Z" transform="translate(-443.962 -328.139)" fill="rgba(0,0,0,0.55)"/>
    <path id="rgba_0_0_0_0.55_91" data-name="rgba(0,0,0,0.55)" d="M478.056,372l.056.28H478Z" transform="translate(-424.428 -329.915)" fill="rgba(0,0,0,0.55)"/>
    <path id="rgba_0_0_0_0.55_92" data-name="rgba(0,0,0,0.55)" d="M389.612,375l-.112.224Z" transform="translate(-345.846 -332.579)" fill="rgba(0,0,0,0.55)"/>
    <path id="rgba_0_0_0_0.55_93" data-name="rgba(0,0,0,0.55)" d="M441.5,375l.112.224Z" transform="translate(-392.019 -332.579)" fill="rgba(0,0,0,0.55)"/>
    <path id="rgba_0_0_0_0.55_94" data-name="rgba(0,0,0,0.55)" d="M499.056,375l.056.28H499Z" transform="translate(-443.074 -332.579)" fill="rgba(0,0,0,0.55)"/>
    <path id="rgba_0_0_0_0.55_95" data-name="rgba(0,0,0,0.55)" d="M207.5,376l.112.224Z" transform="translate(-184.244 -333.466)" fill="rgba(0,0,0,0.55)"/>
    <path id="rgba_0_0_0_0.55_96" data-name="rgba(0,0,0,0.55)" d="M153.612,377l-.112.224Z" transform="translate(-136.296 -334.354)" fill="rgba(0,0,0,0.55)"/>
    <path id="rgba_0_0_0_0.55_97" data-name="rgba(0,0,0,0.55)" d="M477.056,377l.056.28H477Z" transform="translate(-423.54 -334.354)" fill="rgba(0,0,0,0.55)"/>
    <path id="rgba_0_0_0_0.55_98" data-name="rgba(0,0,0,0.55)" d="M89.612,385l-.112.224Z" transform="translate(-79.469 -341.458)" fill="rgba(0,0,0,0.55)"/>
    <path id="rgba_0_0_0_0.55_99" data-name="rgba(0,0,0,0.55)" d="M497.056,386l.056.28H497Z" transform="translate(-441.298 -342.346)" fill="rgba(0,0,0,0.55)"/>
    <path id="rgba_0_0_0_0.55_100" data-name="rgba(0,0,0,0.55)" d="M86.612,388l-.112.224Z" transform="translate(-76.805 -344.121)" fill="rgba(0,0,0,0.55)"/>
    <path id="rgba_0_0_0_0.55_101" data-name="rgba(0,0,0,0.55)" d="M384.056,388l.056.28H384Z" transform="translate(-340.963 -344.121)" fill="rgba(0,0,0,0.55)"/>
    <path id="rgba_0_0_0_0.55_102" data-name="rgba(0,0,0,0.55)" d="M447.056,388l.056.28H447Z" transform="translate(-396.902 -344.121)" fill="rgba(0,0,0,0.55)"/>
    <path id="rgba_0_0_0_0.55_103" data-name="rgba(0,0,0,0.55)" d="M149.056,390l.056,1.065H149Z" transform="translate(-132.301 -345.897)" fill="rgba(0,0,0,0.55)"/>
    <path id="rgba_0_0_0_0.55_104" data-name="rgba(0,0,0,0.55)" d="M496.056,391l.056.28H496Z" transform="translate(-440.41 -346.785)" fill="rgba(0,0,0,0.55)"/>
    <path id="rgba_0_0_0_0.55_105" data-name="rgba(0,0,0,0.55)" d="M85.056,392l.056.5H85Z" transform="translate(-75.474 -347.673)" fill="rgba(0,0,0,0.55)"/>
    <path id="rgba_0_0_0_0.55_106" data-name="rgba(0,0,0,0.55)" d="M384.056,399l.056.28H384Z" transform="translate(-340.963 -353.889)" fill="rgba(0,0,0,0.55)"/>
    <path id="rgba_0_0_0_0.55_107" data-name="rgba(0,0,0,0.55)" d="M447.056,399l.056.28H447Z" transform="translate(-396.902 -353.889)" fill="rgba(0,0,0,0.55)"/>
    <path id="rgba_0_0_0_0.55_108" data-name="rgba(0,0,0,0.55)" d="M491.724,401l-.224.336Z" transform="translate(-436.415 -355.665)" fill="rgba(0,0,0,0.55)"/>
    <path id="rgba_0_0_0_0.55_109" data-name="rgba(0,0,0,0.55)" d="M90.5,403l.28.168-.168.056Z" transform="translate(-80.357 -357.44)" fill="rgba(0,0,0,0.55)"/>
    <path id="rgba_0_0_0_0.55_110" data-name="rgba(0,0,0,0.55)" d="M95.5,405h3.7l.168.168-.056.168-.056-.224H95.5Z" transform="translate(-84.797 -359.216)" fill="rgba(0,0,0,0.55)"/>
    <path id="rgba_0_0_0_0.55_111" data-name="rgba(0,0,0,0.55)" d="M233,405l14.682.056-14.514.056-.112.112Z" transform="translate(-206.886 -359.216)" fill="rgba(0,0,0,0.55)"/>
    <path id="rgba_0_0_0_0.55_112" data-name="rgba(0,0,0,0.55)" d="M468.5,405l1.961.056-1.961.056Z" transform="translate(-415.992 -359.216)" fill="rgba(0,0,0,0.55)"/>
    <path id="rgba_0_0_0_0.55_113" data-name="rgba(0,0,0,0.55)" d="M155.5,413l.112.224Z" transform="translate(-138.072 -366.32)" fill="rgba(0,0,0,0.55)"/>
    <path id="rgba_0_0_0_0.55_114" data-name="rgba(0,0,0,0.55)" d="M201.172,414l-.672.784Z" transform="translate(-178.029 -367.208)" fill="rgba(0,0,0,0.55)"/>
    <path id="rgba_0_0_0_0.55_115" data-name="rgba(0,0,0,0.55)" d="M391.5,415l.448.56Z" transform="translate(-347.622 -368.095)" fill="rgba(0,0,0,0.55)"/>
    <path id="rgba_0_0_0_0.55_116" data-name="rgba(0,0,0,0.55)" d="M437.836,415l-.336.448Z" transform="translate(-388.467 -368.095)" fill="rgba(0,0,0,0.55)"/>
    <path id="rgba_0_0_0_0.55_117" data-name="rgba(0,0,0,0.55)" d="M161.5,419l.112.224Z" transform="translate(-143.4 -371.647)" fill="rgba(0,0,0,0.55)"/>
    <path id="rgba_0_0_0_0.55_118" data-name="rgba(0,0,0,0.55)" d="M134.5,420l.112.224Z" transform="translate(-119.426 -372.535)" fill="rgba(0,0,0,0.55)"/>
    <path id="rgba_0_0_0_0.55_119" data-name="rgba(0,0,0,0.55)" d="M397.5,420l.112.224Z" transform="translate(-352.95 -372.535)" fill="rgba(0,0,0,0.55)"/>
    <path id="rgba_0_0_0_0.55_120" data-name="rgba(0,0,0,0.55)" d="M433.612,420l-.112.224Z" transform="translate(-384.915 -372.535)" fill="rgba(0,0,0,0.55)"/>
    <path id="rgba_0_0_0_0.55_121" data-name="rgba(0,0,0,0.55)" d="M226.612,421l-.112.224Z" transform="translate(-201.115 -373.423)" fill="rgba(0,0,0,0.55)"/>
    <path id="rgba_0_0_0_0.55_122" data-name="rgba(0,0,0,0.55)" d="M224.612,424l-.112.224Z" transform="translate(-199.339 -376.087)" fill="rgba(0,0,0,0.55)"/>
    <path id="rgba_0_0_0_0.55_123" data-name="rgba(0,0,0,0.55)" d="M372.5,425l.112.224Z" transform="translate(-330.752 -376.975)" fill="rgba(0,0,0,0.55)"/>
    <path id="rgba_0_0_0_0.55_124" data-name="rgba(0,0,0,0.55)" d="M458.612,425l-.112.224Z" transform="translate(-407.113 -376.975)" fill="rgba(0,0,0,0.55)"/>
    <path id="rgba_0_0_0_0.55_125" data-name="rgba(0,0,0,0.55)" d="M138.5,426l.112.224Z" transform="translate(-122.978 -377.863)" fill="rgba(0,0,0,0.55)"/>
    <path id="rgba_0_0_0_0.55_126" data-name="rgba(0,0,0,0.55)" d="M176.5,426l1.065.056-1.065.056Z" transform="translate(-156.719 -377.863)" fill="rgba(0,0,0,0.55)"/>
    <path id="rgba_0_0_0_0.55_127" data-name="rgba(0,0,0,0.55)" d="M411.5,426l1.065.056-1.065.056Z" transform="translate(-365.381 -377.863)" fill="rgba(0,0,0,0.55)"/>
    <path id="rgba_0_0_0_0.55_128" data-name="rgba(0,0,0,0.55)" d="M220.836,427l-.336.448Z" transform="translate(-195.787 -378.751)" fill="rgba(0,0,0,0.55)"/>
    <path id="rgba_0_0_0_0.55_129" data-name="rgba(0,0,0,0.55)" d="M375.5,429l.672.784Z" transform="translate(-333.416 -380.526)" fill="rgba(0,0,0,0.55)"/>
    <path id="rgba_0_0_0_0.55_130" data-name="rgba(0,0,0,0.55)" d="M451.172,429l-.672.784Z" transform="translate(-400.01 -380.526)" fill="rgba(0,0,0,0.55)"/>
    <path id="rgba_0_0_0_0.55_131" data-name="rgba(0,0,0,0.55)" d="M214.836,433l-.336.448Z" transform="translate(-190.46 -384.078)" fill="rgba(0,0,0,0.55)"/>
    <path id="rgba_0_0_0_0.55_132" data-name="rgba(0,0,0,0.55)" d="M148.5,436l.112.224Z" transform="translate(-131.857 -386.742)" fill="rgba(0,0,0,0.55)"/>
    <path id="rgba_0_0_0_0.55_133" data-name="rgba(0,0,0,0.55)" d="M384.5,437l.112.224Z" transform="translate(-341.407 -387.63)" fill="rgba(0,0,0,0.55)"/>
    <path id="rgba_0_0_0_0.55_134" data-name="rgba(0,0,0,0.55)" d="M446.612,437l-.112.224Z" transform="translate(-396.458 -387.63)" fill="rgba(0,0,0,0.55)"/>
    <path id="rgba_0_0_0_0.55_135" data-name="rgba(0,0,0,0.55)" d="M210.612,438l-.112.224Z" transform="translate(-186.908 -388.518)" fill="rgba(0,0,0,0.55)"/>
    <path id="rgba_0_0_0_0.55_136" data-name="rgba(0,0,0,0.55)" d="M443.612,439l-.112.224Z" transform="translate(-393.794 -389.406)" fill="rgba(0,0,0,0.55)"/>
    <path id="rgba_0_0_0_0.55_137" data-name="rgba(0,0,0,0.55)" d="M154.5,440l.112.224Z" transform="translate(-137.184 -390.294)" fill="rgba(0,0,0,0.55)"/>
    <path id="rgba_0_0_0_0.55_138" data-name="rgba(0,0,0,0.55)" d="M173.5,447l.392.056-.392.056Z" transform="translate(-154.055 -396.509)" fill="rgba(0,0,0,0.55)"/>
    <path id="rgba_0_0_0_0.55_139" data-name="rgba(0,0,0,0.55)" d="M186.5,447l.392.056-.392.056Z" transform="translate(-165.598 -396.509)" fill="rgba(0,0,0,0.55)"/>
    <path id="rgba_0_0_0_0.55_140" data-name="rgba(0,0,0,0.55)" d="M408.5,447l.28.056-.28.056Z" transform="translate(-362.717 -396.509)" fill="rgba(0,0,0,0.55)"/>
    <path id="rgba_0_0_0_0.55_141" data-name="rgba(0,0,0,0.55)" d="M421.5,447l.28.056-.28.056Z" transform="translate(-374.26 -396.509)" fill="rgba(0,0,0,0.55)"/>
  </g>
</svg>
